<?xml version="1.0" encoding="UTF-8" standalone="no"?>
<svg
   xmlns:dc="http://purl.org/dc/elements/1.1/"
   xmlns:cc="http://creativecommons.org/ns#"
   xmlns:rdf="http://www.w3.org/1999/02/22-rdf-syntax-ns#"
   xmlns:svg="http://www.w3.org/2000/svg"
   xmlns="http://www.w3.org/2000/svg"
   xmlns:sodipodi="http://sodipodi.sourceforge.net/DTD/sodipodi-0.dtd"
   xmlns:inkscape="http://www.inkscape.org/namespaces/inkscape"
   version="1.1"
   x="0px"
   y="0px"
   viewBox="0 0 100 125"
   enable-background="new 0 0 100 100"
   xml:space="preserve"
   id="svg4701"
   sodipodi:docname="mortum-aeternum.svg"
   inkscape:version="0.92.4 5da689c313, 2019-01-14"><metadata
     id="metadata4707"><rdf:RDF><cc:Work
         rdf:about=""><dc:format>image/svg+xml</dc:format><dc:type
           rdf:resource="http://purl.org/dc/dcmitype/StillImage" /><dc:title></dc:title></cc:Work></rdf:RDF></metadata><defs
     id="defs4705" /><sodipodi:namedview
     pagecolor="#ffffff"
     bordercolor="#666666"
     borderopacity="1"
     objecttolerance="10"
     gridtolerance="10"
     guidetolerance="10"
     inkscape:pageopacity="0"
     inkscape:pageshadow="2"
     inkscape:window-width="1920"
     inkscape:window-height="1052"
     id="namedview4703"
     showgrid="false"
     inkscape:zoom="6.8"
     inkscape:cx="56.421456"
     inkscape:cy="51.118496"
     inkscape:window-x="0"
     inkscape:window-y="0"
     inkscape:window-maximized="1"
     inkscape:current-layer="svg4701" /><path
     d="m 50.827889,96.108825 c -0.119701,0 -0.239403,0 -0.359104,-0.05986 C 40.65326,92.876891 33.41132,84.497787 29.52102,71.869277 26.648184,62.472709 26.588333,54.093604 26.588333,53.734499 c 0,-0.598507 0.478806,-1.137164 1.077314,-1.197015 15.202092,-1.735672 22.144778,-9.995074 22.20463,-10.114777 0.239402,-0.299254 0.538657,-0.418955 0.897761,-0.418955 0,0 0,0 0,0 0.359104,0 0.718208,0.179552 0.897761,0.418955 0.05985,0.05985 7.002538,8.379105 22.20463,10.114777 0.598507,0.05985 1.077313,0.598508 1.077313,1.197015 0,0.359105 -0.05985,8.73821 -2.932687,18.134778 -3.770598,12.62851 -11.012538,21.007614 -20.828062,24.179705 -0.119701,0 -0.239403,0.05986 -0.359104,0.05986 z M 29.042214,54.811813 c 0.239403,5.62597 2.453881,32.259553 21.785675,38.843138 C 70.159682,87.071366 72.37416,60.437783 72.613564,54.811813 60.104755,53.076141 53.221919,47.330469 50.827889,44.996289 c -2.394031,2.33418 -9.276867,8.079852 -21.785675,9.815524 z"
     id="path4695"
     inkscape:connector-curvature="0"
     style="fill:#78446b;fill-opacity:1;stroke-width:0.59850758" /><path
     inkscape:connector-curvature="0"
     d="m 97.707264,63.835244 c 0.02707,-0.05019 0.05406,-0.100381 0.07564,-0.154433 0.01778,-0.04478 0.03086,-0.08957 0.04478,-0.135126 0.01547,-0.05019 0.03008,-0.09961 0.04014,-0.152116 0.01005,-0.04941 0.01392,-0.09961 0.01771,-0.149799 0.0046,-0.04864 0.0092,-0.09806 0.0092,-0.148253 0,-0.0556 -0.0069,-0.109646 -0.01307,-0.16447 -0.0039,-0.03397 -0.0015,-0.06718 -0.0085,-0.101924 -0.0046,-0.02395 -0.01075,-0.04865 -0.01547,-0.07336 v 0 C 95.857194,51.977218 83.887191,37.67377 61.601182,29.945244 60.795049,29.665723 59.91479,30.092726 59.636041,30.898086 L 36.139272,98.654917 c -0.279522,0.806134 0.147481,1.685623 0.952842,1.965143 0.167557,0.0579 0.338204,0.0857 0.505763,0.0857 0.640119,0 1.237768,-0.40152 1.459377,-1.03933 L 58.309462,44.148311 c 17.757309,6.37725 28.874063,14.339741 34.281483,18.222922 1.230815,0.88412 2.203734,1.581378 2.945778,2.044674 0.0062,0.0039 0.01238,0.0046 0.01771,0.0077 0.108102,0.06562 0.22393,0.115824 0.345156,0.153659 0.02707,0.0077 0.05252,0.01467 0.0803,0.02162 0.12046,0.0301 0.244007,0.05095 0.371412,0.05095 0.09111,0 0.183777,-0.0085 0.277208,-0.02548 0.02003,-0.0039 0.0386,-0.01236 0.05792,-0.01621 0.04014,-0.0093 0.07876,-0.02162 0.117366,-0.03398 0.07877,-0.02394 0.152889,-0.05251 0.223931,-0.08803 0.03558,-0.01698 0.06945,-0.03321 0.10347,-0.05327 0.08186,-0.04864 0.158294,-0.10347 0.229328,-0.165242 0.01771,-0.01622 0.03859,-0.0278 0.05561,-0.04479 0.08725,-0.08339 0.162146,-0.176824 0.227782,-0.277977 0.0062,-0.0085 0.01392,-0.0139 0.01857,-0.02239 0.01926,-0.02857 0.02854,-0.05869 0.04478,-0.08726 z M 59.321761,41.231101 62.042072,33.387522 C 79.36465,39.770179 89.90461,50.459156 93.583941,59.282602 87.80125,55.143064 76.672144,47.456235 59.321761,41.231101 Z"
     id="path4742"
     style="fill:#9f908e;fill-opacity:1;stroke-width:0.77215767" /><path
     inkscape:connector-curvature="0"
     d="M 3.735446,63.760537 C 3.708378,63.710347 3.681387,63.660156 3.659811,63.606105 3.642023,63.561325 3.628953,63.516535 3.615033,63.470978 3.599566,63.420788 3.584948,63.371368 3.574894,63.318863 c -0.010054,-0.04941 -0.013921,-0.09961 -0.01771,-0.1498 -0.00464,-0.04865 -0.00921,-0.09806 -0.00921,-0.148253 0,-0.0556 0.00696,-0.109646 0.01307,-0.16447 0.00387,-0.03398 0.00154,-0.06718 0.00851,-0.101925 0.00464,-0.02394 0.01075,-0.04864 0.015467,-0.07335 v 0 C 5.5855172,51.902512 17.555518,37.599063 39.84152,29.870537 c 0.806134,-0.279521 1.686395,0.147482 1.965142,0.952843 l 23.496773,67.756829 c 0.27952,0.806133 -0.147482,1.685621 -0.952842,1.965151 -0.167559,0.0579 -0.338212,0.0857 -0.505763,0.0857 -0.640121,0 -1.237769,-0.40153 -1.459378,-1.039338 L 43.133245,44.073604 c -17.757307,6.37725 -28.87406,14.33974 -34.2814787,18.222922 -1.2308158,0.884121 -2.2037348,1.581378 -2.9457787,2.044674 -0.00619,0.0039 -0.012374,0.0046 -0.01771,0.0077 -0.1081022,0.06562 -0.2239303,0.115823 -0.3451565,0.153659 -0.027068,0.0077 -0.052513,0.01467 -0.080299,0.02162 -0.1204607,0.0301 -0.2440071,0.05095 -0.3714125,0.05095 -0.091111,0 -0.1837768,-0.0085 -0.277208,-0.02549 -0.020031,-0.0039 -0.038591,-0.01236 -0.057926,-0.01622 -0.040138,-0.0093 -0.078761,-0.02162 -0.1173672,-0.03397 -0.078768,-0.02394 -0.1528881,-0.05251 -0.2239302,-0.08803 -0.035575,-0.01698 -0.069449,-0.03321 -0.1034696,-0.05327 -0.081854,-0.04865 -0.158294,-0.103471 -0.2293283,-0.165243 -0.017711,-0.01621 -0.038591,-0.0278 -0.055606,-0.04478 -0.087244,-0.08339 -0.1621454,-0.176825 -0.2277816,-0.277979 -0.00619,-0.0085 -0.013921,-0.0139 -0.018561,-0.02239 -0.019257,-0.02857 -0.028537,-0.05868 -0.044778,-0.08726 z m 38.3855,-22.604143 -2.720318,-7.843578 C 22.078058,39.695472 11.538102,50.384449 7.8587706,59.207895 13.64146,55.068358 24.770565,47.381528 42.120946,41.156394 Z"
     id="path4742-3"
     style="fill:#9f908e;fill-opacity:1;stroke-width:0.77215767" /></svg>