<svg xmlns="http://www.w3.org/2000/svg" xmlns:xlink="http://www.w3.org/1999/xlink" version="1.1" x="0px" y="0px" viewBox="0 0 100 125" enable-background="new 0 0 100 100" xml:space="preserve"><path d="M50,95.2c-0.2,0-0.4,0-0.6-0.1C33,89.8,20.9,75.8,14.4,54.7C9.6,39,9.5,25,9.5,24.4c0-1,0.8-1.9,1.8-2  c25.4-2.9,37-16.7,37.1-16.9c0.4-0.5,0.9-0.7,1.5-0.7c0,0,0,0,0,0c0.6,0,1.2,0.3,1.5,0.7c0.1,0.1,11.7,14,37.1,16.9  c1,0.1,1.8,1,1.8,2c0,0.6-0.1,14.6-4.9,30.3C79.1,75.8,67,89.8,50.6,95.1C50.4,95.1,50.2,95.2,50,95.2z M13.6,26.2  C14,35.6,17.7,80.1,50,91.1c32.3-11,36-55.5,36.4-64.9C65.5,23.3,54,13.7,50,9.8C46,13.7,34.5,23.3,13.6,26.2z"/><text x="0" y="115" fill="#000000" font-size="5px" font-weight="bold" font-family="'Helvetica Neue', Helvetica, Arial-Unicode, Arial, Sans-serif">Created by Calvin Goodman</text><text x="0" y="120" fill="#000000" font-size="5px" font-weight="bold" font-family="'Helvetica Neue', Helvetica, Arial-Unicode, Arial, Sans-serif">from the Noun Project</text></svg>