<svg xmlns="http://www.w3.org/2000/svg" xmlns:xlink="http://www.w3.org/1999/xlink" version="1.1" x="0px" y="0px" viewBox="0 0 100 125" enable-background="new 0 0 100 100" xml:space="preserve"><path d="M89.799,48.125c0.035-0.065,0.07-0.13,0.098-0.2c0.023-0.058,0.04-0.116,0.058-0.175c0.02-0.065,0.039-0.129,0.052-0.197  c0.013-0.064,0.018-0.129,0.023-0.194c0.006-0.063,0.012-0.127,0.012-0.192c0-0.072-0.009-0.142-0.017-0.213  c-0.005-0.044-0.003-0.087-0.011-0.132c-0.006-0.031-0.014-0.063-0.02-0.095v0C87.403,32.768,71.901,14.244,43.039,4.235  c-1.044-0.362-2.184,0.191-2.545,1.234l-30.43,87.75c-0.362,1.044,0.191,2.183,1.234,2.545c0.217,0.075,0.438,0.111,0.655,0.111  c0.829,0,1.603-0.52,1.89-1.346l24.933-71.9C61.773,30.888,76.17,41.2,83.173,46.229c1.594,1.145,2.854,2.048,3.815,2.648  c0.008,0.005,0.016,0.006,0.023,0.01c0.14,0.085,0.29,0.15,0.447,0.199c0.035,0.01,0.068,0.019,0.104,0.028  c0.156,0.039,0.316,0.066,0.481,0.066c0.118,0,0.238-0.011,0.359-0.033c0.026-0.005,0.05-0.016,0.075-0.021  c0.052-0.012,0.102-0.028,0.152-0.044c0.102-0.031,0.198-0.068,0.29-0.114c0.046-0.022,0.09-0.043,0.134-0.069  c0.106-0.063,0.205-0.134,0.297-0.214c0.023-0.021,0.05-0.036,0.072-0.058c0.113-0.108,0.21-0.229,0.295-0.36  c0.008-0.011,0.018-0.018,0.024-0.029C89.766,48.201,89.778,48.162,89.799,48.125z M40.087,18.851L43.61,8.693  c22.434,8.266,36.084,22.109,40.849,33.536C76.97,36.868,62.557,26.913,40.087,18.851z"/><text x="0" y="115" fill="#000000" font-size="5px" font-weight="bold" font-family="'Helvetica Neue', Helvetica, Arial-Unicode, Arial, Sans-serif">Created by Srinivas Agra</text><text x="0" y="120" fill="#000000" font-size="5px" font-weight="bold" font-family="'Helvetica Neue', Helvetica, Arial-Unicode, Arial, Sans-serif">from the Noun Project</text></svg>